HIERARCHY
ROOT hip
{
	OFFSET 0.000000 0.000000 0.000000 
	CHANNELS 6 Xposition Yposition Zposition Xrotation Zrotation Yrotation
	JOINT abdomen
	{
		OFFSET 0.000000 3.402643 0.000000 
		CHANNELS 3 Xrotation Zrotation Yrotation
		JOINT chest
		{
			OFFSET 0.000000 8.438565 -0.680529 
			CHANNELS 3 Xrotation Zrotation Yrotation
			JOINT neck
			{
				OFFSET 0.000000 10.207942 -0.272212 
				CHANNELS 3 Xrotation Zrotation Yrotation
				JOINT head
				{
					OFFSET 0.000000 3.130431 0.000000 
					CHANNELS 3 Xrotation Zrotation Yrotation
					End Site
					{
						OFFSET 0.000000 3.130435 0.000000 
					}
				}
			}
			JOINT lCollar
			{
				OFFSET 3.470700 6.669187 -0.816635 
				CHANNELS 3 Yrotation Zrotation Xrotation
				JOINT lShldr
				{
					OFFSET 3.198488 0.000000 0.000000 
					CHANNELS 3 Zrotation Yrotation Xrotation
					JOINT lForeArm
					{
						OFFSET 10.139888 0.000000 0.000000 
						CHANNELS 3 Yrotation Zrotation Xrotation
						JOINT lHand
						{
							OFFSET 8.370511 0.000000 0.000000 
							CHANNELS 3 Zrotation Yrotation Xrotation
							End Site
							{
								OFFSET 4.083176 0.000000 0.000000 
							}
						}
					}
				}
			}
			JOINT rCollar
			{
				OFFSET -3.470700 6.669187 -0.816635 
				CHANNELS 3 Yrotation Zrotation Xrotation
				JOINT rShldr
				{
					OFFSET -3.198488 0.000000 0.000000 
					CHANNELS 3 Zrotation Yrotation Xrotation
					JOINT rForeArm
					{
						OFFSET -10.139888 0.000000 0.000000 
						CHANNELS 3 Yrotation Zrotation Xrotation
						JOINT rHand
						{
							OFFSET -8.370511 0.000000 0.000000 
							CHANNELS 3 Zrotation Yrotation Xrotation
							End Site
							{
								OFFSET -4.083176 0.000000 0.000000 
							}
						}
					}
				}
			}
		}
	}
	JOINT lThigh
	{
		OFFSET 5.308129 -1.633274 1.361059 
		CHANNELS 3 Xrotation Zrotation Yrotation
		JOINT lShin
		{
			OFFSET -2.041588 -20.007561 0.000000 
			CHANNELS 3 Xrotation Zrotation Yrotation
			JOINT lFoot
			{
				OFFSET 0.000000 -19.190928 -1.224953 
				CHANNELS 3 Xrotation Yrotation Zrotation
				End Site
				{
					OFFSET 0.000000 -2.449906 4.627600 
				}
			}
		}
	}
	JOINT rThigh
	{
		OFFSET -5.308129 -1.633274 1.361059 
		CHANNELS 3 Xrotation Zrotation Yrotation
		JOINT rShin
		{
			OFFSET 2.041588 -20.007561 0.000000 
			CHANNELS 3 Xrotation Zrotation Yrotation
			JOINT rFoot
			{
				OFFSET 0.000000 -19.190928 -1.224953 
				CHANNELS 3 Xrotation Yrotation Zrotation
				End Site
				{
					OFFSET 0.000000 -2.449906 4.627600 
				}
			}
		}
	}
}
MOTION
Frames: 16
Frame Time: 0.016667
0.000000 33.892929 0.000000 -9.186632 -0.146457 -1.103537 44.986706 -0.829758 1.591913 -7.693150 -3.396672 -1.849403 51.013470 8.107759 2.476239 -89.702766 -0.576146 0.546847 5.907155 -3.927052 7.533718 -68.100998 3.357234 -8.390754 -55.603622 -1.301821 -2.123467 43.228298 41.223595 17.910997 -1.379231 6.123519 10.037957 68.154663 -20.029049 -10.391879 60.050865 0.795426 -2.498987 -54.866859 -34.450230 24.442913 -67.445488 14.353171 9.455470 56.724430 -3.080637 -4.093922 19.483871 15.636945 -2.649321 -67.810860 -16.523260 -0.192592 56.213017 2.441508 3.552793 23.542570 -12.084420 12.251532 
0.000000 34.080269 0.000000 -8.669894 -0.097636 -1.162125 43.934132 -0.859120 1.396620 -8.042465 -3.484536 -1.839665 51.013470 8.107759 2.476239 -89.485390 -0.966792 0.175756 5.956892 -4.191978 7.477408 -68.627625 4.636140 -8.876879 -55.684742 -1.292700 -2.036176 42.055809 41.877239 18.580301 -1.502069 6.300718 9.971857 68.718056 -20.684868 -11.344753 60.418671 0.970337 -2.676057 -52.560165 -35.766598 25.266777 -67.592468 14.519616 9.674572 56.978580 -2.922690 -4.178000 19.367750 15.340473 -2.683865 -67.970352 -16.521694 -0.345585 56.476803 2.441514 3.572535 23.143190 -11.792179 12.096039 
0.000000 34.280758 0.000000 -8.240124 -0.097634 -1.210952 42.873505 -0.790830 1.240251 -8.300786 -3.484361 -1.927393 51.013470 8.107759 2.476239 -89.216133 -1.533201 -0.097883 5.954135 -4.456446 7.500234 -68.751663 5.869923 -9.196910 -55.691216 -1.298577 -2.118727 40.853294 42.635349 18.945482 -1.594909 6.482723 9.985716 69.481613 -21.623991 -12.190775 60.939255 0.942819 -2.695454 -50.531990 -37.266411 26.525423 -67.806816 14.802464 9.667543 57.315914 -3.059679 -4.286473 19.013783 15.240739 -2.661526 -68.248985 -16.523098 -0.403030 56.845318 2.450980 3.672433 22.958326 -11.802517 12.161196 
0.000000 34.481232 0.000000 -7.800588 -0.097633 -1.259781 41.812382 -0.742059 1.064490 -8.569123 -3.493958 -2.005967 51.013470 8.107759 2.476239 -88.940689 -2.109326 -0.391079 5.950787 -4.721926 7.513562 -68.888718 7.111612 -9.530058 -55.688644 -1.306503 -2.207537 39.635132 43.401398 19.283981 -1.684987 6.655366 9.988868 70.255951 -22.556520 -13.056151 61.460106 0.932914 -2.707799 -48.497387 -38.806919 27.746138 -68.030663 15.085339 9.667212 57.653873 -3.196486 -4.376125 18.683809 15.141175 -2.641451 -68.517006 -16.521791 -0.468919 57.194706 2.431558 3.766080 22.781103 -11.815186 12.216993 
0.000000 34.713024 0.000000 -7.243377 -0.117156 -1.328142 40.584152 -0.761631 0.869194 -8.915320 -3.493765 -2.094290 51.013470 8.107759 2.476239 -88.563622 -2.597482 -0.665150 6.036720 -4.984607 7.535626 -69.243378 8.562846 -9.743902 -55.779781 -1.298708 -2.124964 38.588200 44.347534 19.579599 -1.906091 6.833764 10.081195 70.944023 -23.482944 -14.005247 61.901676 0.914057 -2.715780 -46.219055 -40.339531 28.758099 -68.245453 15.319607 9.902035 58.010708 -3.049960 -4.328936 18.457201 14.874897 -2.739201 -68.698608 -16.532839 -0.454772 57.454266 2.353198 3.648195 22.455675 -11.643768 12.216073 
0.000000 34.944805 0.000000 -6.676355 -0.136678 -1.396504 39.346165 -0.790961 0.673764 -9.271878 -3.493588 -2.172269 51.013470 8.107759 2.476239 -88.191483 -3.095288 -0.939296 6.132522 -5.245952 7.556833 -69.607254 10.004375 -9.970269 -55.861729 -1.301275 -2.043488 37.534306 45.297108 19.858734 -2.136168 7.010152 10.162607 71.654221 -24.402824 -14.984812 62.333992 0.896360 -2.727847 -43.919006 -41.900936 29.714981 -68.460381 15.554014 10.135310 58.366882 -2.913437 -4.285434 18.260359 14.636819 -2.842842 -68.893478 -16.532757 -0.424841 57.722298 2.265397 3.563881 22.146368 -11.491035 12.222536 
0.000000 35.103741 0.000000 -6.404994 -0.048812 -1.474617 38.206120 -0.810519 0.478468 -9.624980 -3.581227 -2.250856 51.013470 8.107759 2.476239 -87.919922 -3.661277 -1.223200 6.305549 -5.429021 7.567269 -69.984169 11.085484 -10.650810 -55.868347 -1.298813 -2.131145 36.563519 45.906467 19.994026 -2.305393 7.178469 10.166759 72.201073 -25.130430 -15.952315 62.953163 0.874707 -2.743261 -41.670700 -43.420673 30.373257 -68.682060 15.845293 10.143091 58.721008 -2.944071 -4.244215 17.883595 14.422547 -2.668227 -69.002197 -16.513294 -0.255345 58.074490 2.345312 3.564599 21.867113 -11.571239 12.281935 
0.000000 35.262684 0.000000 -6.143637 0.039048 -1.552734 37.056396 -0.839833 0.283173 -9.977442 -3.678607 -2.329453 51.013470 8.107759 2.476239 -87.643188 -4.236838 -1.498714 6.477342 -5.602358 7.577743 -70.378166 12.172206 -11.342603 -55.865421 -1.296710 -2.219563 35.589478 46.509235 20.111942 -2.487234 7.354268 10.179354 72.759010 -25.857901 -16.933735 63.572613 0.861899 -2.755372 -39.390171 -44.951843 30.958147 -68.914856 16.142458 10.121054 59.094242 -3.001327 -4.209196 17.519350 14.208061 -2.493099 -69.092743 -16.502119 -0.041829 58.417305 2.451277 3.550222 21.583029 -11.638433 12.352156 
0.000000 35.422665 0.000000 -5.898438 0.000000 -1.533203 35.915100 -0.800776 0.205058 -10.329005 -3.678607 -2.329453 51.013470 8.107759 2.476239 -87.280136 -4.822141 -1.686054 6.831774 -5.604709 7.572697 -70.972214 13.087892 -12.190145 -55.953495 -1.294988 -2.220027 34.916794 47.048035 20.084213 -2.624382 7.348130 10.247600 73.316025 -25.964312 -18.141232 64.447159 0.824169 -2.772844 -36.346935 -46.520325 30.263178 -69.159348 16.288857 10.165412 59.445972 -2.874640 -4.275610 16.941792 14.244297 -2.420332 -69.419289 -16.522724 -0.451185 58.680038 2.363411 3.610175 21.160978 -11.396929 12.210552 
0.000000 35.582653 0.000000 -5.663294 -0.029287 -1.503911 34.773796 -0.781248 0.117177 -10.681194 -3.678633 -2.319707 51.013470 8.107759 2.476239 -86.912300 -5.407251 -1.884138 7.185831 -5.596193 7.577008 -71.575661 14.003500 -13.054602 -56.041180 -1.283498 -2.220462 34.229889 47.581299 20.043591 -2.753673 7.353019 10.315843 73.885284 -26.052645 -19.365038 65.322258 0.795337 -2.787201 -33.182774 -48.060501 29.428116 -69.412521 16.454485 10.186059 59.807602 -2.758856 -4.328571 16.356407 14.286347 -2.364039 -69.747963 -16.541456 -0.839199 58.933262 2.274214 3.658545 20.748804 -11.156734 12.073169 
0.000000 35.810623 0.000000 -5.156789 0.019524 -1.582031 33.624142 -0.800781 -0.078254 -10.945282 -3.766214 -2.408057 51.013470 8.107759 2.476239 -86.624466 -5.884887 -2.061996 7.583247 -5.769614 7.661800 -72.114700 14.662092 -13.911440 -56.041180 -1.283498 -2.220462 33.757607 48.129742 19.941057 -3.235475 7.437044 10.247303 74.251236 -24.947670 -21.161861 66.557350 0.672344 -2.722402 -28.214087 -49.565681 26.209021 -69.535698 16.706837 10.250097 60.151516 -2.845369 -4.288279 16.138723 14.085826 -2.196988 -69.925995 -16.541826 -1.010162 59.294151 2.167848 3.705063 20.436131 -11.083199 11.871843 
0.000000 36.038582 0.000000 -4.640641 0.068331 -1.650390 32.474663 -0.830069 -0.273550 -11.209756 -3.853802 -2.486671 51.013470 8.107759 2.476239 -86.332161 -6.372077 -2.250685 7.980821 -5.930851 7.755842 -72.665077 15.303621 -14.784242 -56.041180 -1.283498 -2.220462 33.285049 48.666317 19.839670 -3.710417 7.532954 10.186659 74.574692 -23.840366 -22.929901 67.792953 0.550847 -2.657047 -22.973673 -50.877510 22.694822 -69.657158 16.962412 10.324878 60.514378 -2.915002 -4.269933 15.917134 13.886223 -2.058218 -70.104813 -16.542397 -1.171623 59.653774 2.079915 3.780158 20.147635 -11.061923 11.673361 
0.000000 36.237156 0.000000 -4.150098 -0.009761 -1.718752 31.509748 -0.878887 -0.380964 -11.468166 -3.853570 -2.564619 51.013470 8.107759 2.476239 -86.060966 -6.946833 -2.450394 8.385391 -5.933478 7.836235 -72.950180 15.664560 -15.579659 -56.129250 -1.281757 -2.220866 33.064693 49.414280 19.451904 -4.240073 7.448535 10.181275 74.366173 -21.589561 -24.792166 69.716560 0.478095 -2.781396 -16.500929 -51.408257 17.022734 -69.983948 17.243128 10.315659 60.866158 -2.993290 -4.285233 15.479335 13.884800 -2.081367 -70.364647 -16.629614 -1.153602 59.919548 2.167802 3.741658 19.725672 -10.958231 11.756353 
0.000000 36.435722 0.000000 -3.659673 -0.078087 -1.787121 30.545101 -0.937466 -0.488376 -11.735229 -3.863057 -2.652967 51.013470 8.107759 2.476239 -85.787468 -7.511644 -2.640671 8.788569 -5.925273 7.916088 -73.236412 16.015928 -16.366838 -56.217697 -1.289765 -2.221239 32.840870 50.151958 19.059565 -4.769142 7.353755 10.183406 74.088867 -19.351185 -26.637175 71.647240 0.410543 -2.903535 -9.936713 -51.538162 11.259291 -70.310837 17.538502 10.271422 61.208073 -3.099848 -4.297100 15.071138 13.903327 -2.140625 -70.623535 -16.718731 -1.146505 60.193268 2.255919 3.752834 19.292686 -10.884963 11.836117 
0.000000 36.607449 0.000000 -3.143578 -0.029281 -1.865239 29.747911 -0.956961 -0.693589 -11.995500 -3.950885 -2.643233 51.013470 8.107759 2.476239 -85.577568 -7.979321 -2.731738 9.271846 -6.004766 7.986381 -73.688553 16.284872 -17.528351 -56.217697 -1.289765 -2.221239 32.648800 50.588066 19.172035 -5.254127 7.351979 10.247224 73.904793 -17.477865 -28.000629 73.321548 0.436362 -2.843141 -4.212675 -51.142799 6.238856 -70.445877 17.693888 10.409220 61.471573 -2.923758 -4.364534 14.870655 13.751348 -1.954226 -70.847855 -16.621006 -0.834243 60.543228 2.324242 3.556687 19.094732 -10.765284 11.938350 
0.000000 36.779167 0.000000 -2.627616 0.019520 -1.943359 28.950680 -0.986212 -0.879112 -12.264874 -4.038682 -2.643922 51.013470 8.107759 2.476239 -85.375435 -8.456666 -2.824332 9.757647 -6.091069 8.065561 -74.142624 16.548046 -18.694565 -56.217697 -1.289765 -2.221239 32.457535 51.025803 19.273643 -5.749842 7.346418 10.318494 73.664276 -15.605717 -29.350908 74.999542 0.474031 -2.784080 1.407180 -50.442070 1.318924 -70.590721 17.858953 10.529654 61.732746 -2.739612 -4.484168 14.672612 13.646362 -1.778532 -71.081291 -16.523153 -0.530841 60.893105 2.412123 3.362549 18.889637 -10.659523 12.027523 
